<?xml version="1.0" encoding="UTF-8"?>
<svg version="1.1" xmlns="http://www.w3.org/2000/svg" width="512" height="512">
<path d="M0 0 C165 0 330 0 500 0 C500 26.07 500 52.14 500 79 C335 79 170 79 0 79 C0 52.93 0 26.86 0 0 Z " fill="#000000" transform="translate(6,433)"/>
<path d="M0 0 C165 0 330 0 500 0 C500 26.07 500 52.14 500 79 C335 79 170 79 0 79 C0 52.93 0 26.86 0 0 Z " fill="#000000" transform="translate(6,291)"/>
<path d="M0 0 C165 0 330 0 500 0 C500 26.07 500 52.14 500 79 C335 79 170 79 0 79 C0 52.93 0 26.86 0 0 Z " fill="#000000" transform="translate(6,142)"/>
<path d="M0 0 C165 0 330 0 500 0 C500 26.07 500 52.14 500 79 C335 79 170 79 0 79 C0 52.93 0 26.86 0 0 Z " fill="#000000" transform="translate(6,0)"/>
</svg>
